<svg xmlns="http://www.w3.org/2000/svg" width="960" height="960" viewBox="0 0 720 720"><path d="M337.5 55.1c-74.9 5.6-144.4 38-196.5 91.5-23.6 24.3-41.4 49.3-55.5 77.9-18.4 37.4-27.3 70-31.5 115-3.7 40.7 4.2 91.8 20.7 133.5 46.4 117 159.4 194 284.8 194 63.4 0 124.1-19.2 176.2-55.7 64-44.8 108.8-113.3 124.2-189.9 8.2-40.9 8-81.7-.4-123.9-12.3-61.2-47.9-122.8-95-164.5-63.7-56.3-144.5-84.1-227-77.9zm-67.9 331.5c6.9 1.9 13.3 7 16.9 13.5 2.6 4.8 3 6.4 3 13.5 0 7.3-.3 8.6-3.1 13-1.6 2.7-4.4 5.8-6.1 6.9-1.8 1.1-3.1 2.3-3 2.7.1.3 2.4 2.1 5.1 4 3.3 2.2 6 5.1 8 8.8 2.8 5 3.1 6.3 3.1 14 0 7.3-.4 9.2-2.7 13.6-3.3 6.2-8.4 10.8-15.8 14.3-4.5 2.1-7.3 2.7-15.7 2.9-10.5.4-17.3-1-23.3-4.6-10.3-6.3-15.1-17.4-11.6-26.7 3.9-10 16.8-11.6 20.6-2.5 1.5 3.5-.1 8.4-3.1 10.1-2.7 1.4-2.3 3.3 1.1 6.3 9.3 7.8 26.7 4.9 32.1-5.4 2.5-4.5 2.5-12.5 0-17-1-1.9-3.9-4.8-6.4-6.4-4.1-2.5-5.5-2.8-12.4-2.8-11.4.1-11.3.2-11.3-7.4V431h7.8c9 0 14.1-2.3 17.9-7.9 3.2-4.7 3.2-13.2.1-17.8-5.4-7.8-18.3-9.4-26.2-3.2l-2.7 2.1 2.6 2.4c5.7 5.2.9 14.4-7.5 14.4-3.4 0-4.8-.6-7.6-3.4-3.1-3.1-3.4-4-3.4-9 0-18.1 20.5-28.4 43.6-22zm220.6 4.1c.4 8.1.8 7.5-6.2 8.9-9.3 1.9-21.6 8.3-28 14.6-5 4.9-13.4 16.7-12.5 17.6.2.2 1.9-.7 3.7-2.1 6.5-4.8 9.8-6 17.8-6 9.7 0 17 3.2 23.4 10.4 6.7 7.5 8.9 14.1 8.4 25.9-.4 11.8-3.4 18.6-10.9 25.4-6.9 6.2-13.8 8.6-24.7 8.6-7.5 0-9.5-.4-14.7-2.9-7.7-3.7-12.6-8.8-16.7-17.6-3.2-6.9-3.2-7.2-3.2-21.5-.1-12.5.3-15.5 2.3-21.5 3.7-11.4 8-18.5 16.1-26.6 9.3-9.4 19.9-15 33.5-17.8 10.2-2.2 11.3-1.7 11.7 4.6zM381 418v32h14.1l-.3 6.7-.3 6.8-6.8.3-6.8.3.3 7.2.3 7.2 5 .1c2.8.1 5.6.2 6.3.3.9.1 1.2 1.8 1 6.3l-.3 6.3-20.8.3-20.8.2.3-6.6.3-6.7 6-.1 6-.1.3-7.2.3-7.3-21.8-.2-21.8-.3-.3-6.5-.3-6.5 20.5-30.9c11.3-16.9 21.1-31.5 21.7-32.2.8-1 3.6-1.4 9.5-1.4h8.4v32z"/><path d="M455 438.1c-7.3 2.9-12 11-12 20.6.1 11.3 5.1 18.9 14.2 21.4 15.2 4.1 27.8-12.1 22.7-29.2-1.5-5-6.4-10.8-10.5-12.5-3.8-1.6-10.8-1.7-14.4-.3zM351.7 428c-7.1 10.6-13.1 19.9-13.4 20.7-.4 1 2.1 1.3 12.6 1.3 9.8 0 13.3-.3 13.7-1.3.2-.7.3-10 .2-20.7l-.3-19.4-12.8 19.4z"/></svg>
